<svg width="50" height="70" viewBox="0 0 50 70" fill="none" xmlns="http://www.w3.org/2000/svg">
<path d="M2.03677 54.5995C3.53753 55.8859 5.25268 57.0651 7.50383 58.1371C9.64779 59.209 12.0061 59.9594 14.5789 60.6026C17.5804 61.2458 20.2604 61.5674 22.8331 61.5674C26.049 61.5674 29.0506 61.1386 31.7305 60.1738C34.4104 59.3162 36.4472 58.0299 38.0552 56.3147C39.6631 54.4923 40.4135 52.5628 40.4135 50.3116C40.4135 47.5245 39.1271 45.2733 36.5544 43.5582C33.9817 41.843 29.801 40.5566 24.2267 39.5919L18.8668 38.6271C12.6493 37.5551 7.93264 35.4112 4.71671 32.4096C1.60797 29.4081 0 25.549 0 20.7251C0 16.7588 1.07198 13.3284 3.32313 10.2197C5.46709 7.11098 8.68301 4.75262 12.6493 3.03746C16.6156 1.3223 21.1179 0.464722 26.1562 0.464722H27.7642C34.0889 0.679117 39.8775 2.07268 45.2374 4.64542L44.9158 13.8644C38.9128 10.3269 32.8025 8.50455 26.3706 8.50455C23.1547 8.50455 20.3676 8.93334 17.7948 9.89812C15.2221 10.7557 13.1853 12.1493 11.6846 13.7572C10.0766 15.5796 9.32619 17.6164 9.32619 19.8675C9.32619 22.6546 10.5054 24.9058 12.8637 26.6209C15.2221 28.3361 19.0812 29.6225 24.4411 30.5873L29.1578 31.3376C36.1256 32.5168 41.2711 34.5536 44.7014 37.5551C48.1317 40.5566 49.8469 44.4158 49.8469 49.2397C49.8469 53.206 48.7749 56.6363 46.5238 59.745C44.2726 62.8538 41.0567 65.2121 36.9832 66.9273C32.9097 68.6424 28.3002 69.5 23.1547 69.5H21.7611C18.2236 69.3928 14.6861 68.8568 11.1486 67.892C7.61104 66.9273 4.28791 65.6409 1.39357 64.0329L2.03677 54.5995Z" fill="#353238"/>
</svg>
