<svg width="66" height="68" viewBox="0 0 66 68" fill="none" xmlns="http://www.w3.org/2000/svg">
<path d="M52.881 15.9732C50.5226 13.5076 47.8427 11.6853 44.7339 10.3989C41.6252 9.11252 38.3021 8.46934 34.8718 8.46934C30.1551 8.46934 25.8672 9.54132 22.008 11.7925C18.1489 14.0436 15.0402 17.1524 12.789 21.2259C10.5379 25.1922 9.4659 29.5873 9.4659 34.5184C9.4659 39.3423 10.5379 43.6302 12.5746 47.5965C14.6114 51.4556 17.6129 54.5643 21.3648 56.8155C25.224 59.0666 29.4047 60.1386 33.907 60.1386C40.446 60.1386 45.5915 58.4234 49.5578 54.9931C53.4169 51.5628 55.7753 46.7389 56.4185 40.307H30.3694L34.3358 36.0191C36.3725 33.8752 39.1596 32.5888 42.054 32.5888H65.5303V33.9824C65.5303 40.4142 64.2439 46.0957 61.6712 51.2412C59.0984 56.3867 55.4537 60.353 50.737 63.3545C46.0203 66.3561 40.3388 67.8568 33.7998 67.8568C27.7967 67.8568 22.3296 66.4633 17.2913 63.7833C12.253 60.9962 8.17953 57.2443 5.17799 52.4204C2.06926 47.3821 0.461304 41.379 0.461304 34.5184C0.461304 28.1937 1.96208 22.405 4.85641 17.2596C7.75075 12.1141 11.9314 7.93335 17.2913 5.03901C22.6512 2.03748 28.4399 0.643921 34.8718 0.643921C39.6957 0.643921 44.1979 1.50149 48.3786 3.10945C52.3449 4.71742 55.7753 6.96857 58.7768 9.86291L52.881 15.9732Z" fill="#353238"/>
</svg>
