<svg width="57" height="55" viewBox="0 0 57 55" fill="none" xmlns="http://www.w3.org/2000/svg">
<path d="M50.527 0.186157L44.2023 7.154C46.0247 10.9059 46.9895 15.6226 46.9895 21.0897C46.9895 29.3439 44.8455 35.5614 40.6648 39.9565C36.4841 44.3516 30.481 46.6027 22.7628 46.6027H13.5438C10.2207 46.6027 7.00477 47.9963 4.75362 50.4618L0.787292 54.7498H22.6556C29.6235 54.7498 35.6265 53.3562 40.772 50.569C45.8103 47.7819 49.5622 43.9228 52.2422 38.7773C54.9221 33.739 56.2085 27.7359 56.2085 20.9825C56.2085 14.1218 54.9221 8.22598 52.2422 3.18769C51.8134 2.22292 51.1702 1.15094 50.527 0.186157Z" fill="#353238"/>
</svg>
